<?xml version="1.0" encoding="iso-8859-1"?>
<!-- Generator: Adobe Illustrator 19.0.0, SVG Export Plug-In . SVG Version: 6.00 Build 0)  -->
<svg version="1.1" id="Layer_1" xmlns="http://www.w3.org/2000/svg" xmlns:xlink="http://www.w3.org/1999/xlink" x="0px" y="0px"
	 viewBox="0 0 512 512" style="enable-background:new 0 0 512 512;" xml:space="preserve">
<g>
	<g>
		<path d="M461.913,77.391H416.46V58.957c0-9.22-7.475-16.696-16.696-16.696s-16.696,7.475-16.696,16.696v18.434H128.932V58.957
			c0-9.22-7.475-16.696-16.696-16.696S95.54,49.736,95.54,58.957v18.434H50.087C22.469,77.391,0,99.86,0,127.478
			c0,3.435,0,322.139,0,325.565c0,9.22,7.475,16.696,16.696,16.696h478.609c9.22,0,16.696-7.475,16.696-16.696
			c0-3.426,0-322.13,0-325.565C512,99.86,489.531,77.391,461.913,77.391z M478.609,436.348H33.391V207.469h445.217V436.348z
			 M478.609,174.079H33.391v-46.601c0-9.206,7.49-16.696,16.696-16.696H95.54v4.833c0,9.22,7.475,16.696,16.696,16.696
			c9.22,0,16.696-7.475,16.696-16.696v-4.833h254.136v4.833c0,9.22,7.475,16.696,16.696,16.696c9.22,0,16.696-7.475,16.696-16.696
			v-4.833h45.454c9.206,0,16.696,7.49,16.696,16.696V174.079z"/>
	</g>
</g>
<g>
	<g>
		<path d="M123.764,240.248c-16.571,0-30.052,13.481-30.052,30.052s13.481,30.052,30.052,30.052
			c16.571,0,30.052-13.481,30.052-30.052S140.335,240.248,123.764,240.248z"/>
	</g>
</g>
<g>
	<g>
		<path d="M256,240.248c-16.571,0-30.052,13.481-30.052,30.052s13.481,30.052,30.052,30.052s30.052-13.481,30.052-30.052
			S272.571,240.248,256,240.248z"/>
	</g>
</g>
<g>
	<g>
		<path d="M388.236,240.248c-16.571,0-30.052,13.481-30.052,30.052s13.481,30.052,30.052,30.052
			c16.571,0,30.052-13.481,30.052-30.052S404.806,240.248,388.236,240.248z"/>
	</g>
</g>
<g>
	<g>
		<path d="M123.764,343.465c-16.571,0-30.052,13.481-30.052,30.052s13.481,30.052,30.052,30.052
			c16.571,0,30.052-13.481,30.052-30.052S140.335,343.465,123.764,343.465z"/>
	</g>
</g>
<g>
	<g>
		<path d="M256,343.465c-16.571,0-30.052,13.481-30.052,30.052S239.429,403.57,256,403.57s30.052-13.481,30.052-30.052
			S272.571,343.465,256,343.465z"/>
	</g>
</g>
<g>
	<g>
		<path d="M388.236,343.465c-16.571,0-30.052,13.481-30.052,30.052s13.481,30.052,30.052,30.052
			c16.571,0,30.052-13.481,30.052-30.052S404.806,343.465,388.236,343.465z"/>
	</g>
</g>
<g>
</g>
<g>
</g>
<g>
</g>
<g>
</g>
<g>
</g>
<g>
</g>
<g>
</g>
<g>
</g>
<g>
</g>
<g>
</g>
<g>
</g>
<g>
</g>
<g>
</g>
<g>
</g>
<g>
</g>
</svg>
