<?xml version="1.0" encoding="iso-8859-1"?>
<!-- Generator: Adobe Illustrator 16.0.0, SVG Export Plug-In . SVG Version: 6.00 Build 0)  -->
<!DOCTYPE svg PUBLIC "-//W3C//DTD SVG 1.1//EN" "http://www.w3.org/Graphics/SVG/1.1/DTD/svg11.dtd">
<svg version="1.1" id="Capa_1" xmlns="http://www.w3.org/2000/svg" xmlns:xlink="http://www.w3.org/1999/xlink" x="0px" y="0px"
	 width="346.099px" height="346.099px" viewBox="0 0 346.099 346.099" style="enable-background:new 0 0 346.099 346.099;"
	 xml:space="preserve">
<g>
	<g>
		<path d="M175.523,151.984c2.792-1.789,5.503-3.975,8.353-6.287c5.477-4.449,11.15-9.043,16.495-9.331
			c5.824-0.31,12.202-0.769,17.168-1.153c1.855,21.038,19.558,37.59,41.055,37.59c22.704,0,41.187-18.483,41.187-41.205
			c0-22.713-18.482-41.19-41.187-41.19c-17.126,0-32.414,10.827-38.407,26.743c-4.983,0.399-13.354,1.039-20.752,1.438
			c-11.104,0.583-19.783,7.623-26.775,13.286c-2.381,1.934-4.636,3.771-7.152,5.407c-0.652,0.478-1.303,0.958-1.937,1.438
			c0.651-6.02,0.627-11.979,0.585-17.647c-0.033-4.291-0.075-8.713,0.237-12.95c1.036-12.82,9.785-30.333,19.465-38.995
			c7.529-6.53,16.494-8.59,26.901-10.989c3.074-0.721,6.215-1.495,9.349-2.387c5.976,15.939,21.096,26.643,38.497,26.643
			c22.698,0,41.181-18.477,41.181-41.19C299.786,18.483,281.304,0,258.605,0c-21.389,0-39.025,16.375-40.952,37.972
			c-3.543,1.087-7.182,1.954-10.894,2.813c-11.12,2.566-23.694,5.461-34.659,14.991c-13.325,11.904-24.025,33.33-25.451,50.999
			c-0.333,4.738-0.307,9.47-0.289,14.766c0.09,11.62,0.166,21.656-5.332,30.874c-2.84,5.245-5.281,6.737-7.341,7.311l-1.285-0.042
			c-1.447-0.051-2.945-0.069-4.5-0.069l-0.628,0.006c-4.587-17.984-20.933-31.039-39.761-31.039
			c-22.719,0-41.202,18.477-41.202,41.189c0,22.72,18.483,41.202,41.202,41.202c19.696,0,36.194-13.745,40.13-32.685l0.078-0.012
			c2.762,0.15,5.374-0.045,7.833-0.438c3.93,0.612,6.599,2.187,9.797,8.059c5.311,8.899,5.239,18.927,5.146,30.553
			c-0.03,4.804-0.06,9.788,0.307,14.832c1.396,17.594,12.114,39.019,25.521,51.005c10.859,9.427,23.434,12.346,34.548,14.909
			c2.421,0.553,4.738,1.136,7.044,1.741c-0.348,2.078-0.517,4.029-0.517,5.969c0,22.705,18.483,41.193,41.193,41.193
			c22.704,0,41.187-18.488,41.187-41.193c0-22.716-18.482-41.198-41.187-41.198c-13.871,0-26.626,7.014-34.222,18.579
			c-3.177-0.913-6.353-1.706-9.518-2.438c-10.376-2.396-19.342-4.462-26.77-10.893c-9.752-8.743-18.519-26.265-19.533-39.02
			c-0.321-4.419-0.288-8.959-0.258-13.354c0.042-5.488,0.093-11.355-0.567-17.312c0.75,0.57,1.531,1.146,2.327,1.724
			c2.114,1.351,4.327,3.17,6.749,5.128c6.972,5.656,15.649,12.688,26.775,13.282c4.624,0.24,9.614,0.576,13.932,0.906
			c1.514,21.348,19.359,38.245,41.097,38.245c22.698,0,41.181-18.482,41.181-41.205c0-22.698-18.482-41.184-41.181-41.184
			c-17.113,0-32.317,10.703-38.347,26.502c-4.72-0.354-10.46-0.757-15.721-1.045c-5.368-0.282-11.036-4.882-16.699-9.464
			c-2.804-2.281-5.458-4.401-7.752-5.86c-4.026-2.924-7.638-6.131-11.136-9.253c-3.99-3.549-7.773-6.807-11.788-9.557
			c2.717-2.162,5.281-4.432,7.668-6.555C168.128,157.989,171.866,154.65,175.523,151.984z M258.594,108.216
			c12.904,0,23.406,10.496,23.406,23.383c0,12.907-10.502,23.409-23.406,23.409c-12.91,0-23.389-10.502-23.389-23.409
			C235.205,118.712,245.684,108.216,258.594,108.216z M258.594,17.808C271.498,17.808,282,28.31,282,41.217
			c0,12.901-10.502,23.395-23.406,23.395c-12.91,0-23.389-10.494-23.389-23.395C235.205,28.304,245.684,17.808,258.594,17.808z
			 M87.502,193.187c-12.898,0-23.395-10.496-23.395-23.404c0-12.904,10.496-23.395,23.395-23.395
			c12.397,0,22.599,9.751,23.245,21.92l0.012,2.688C110.107,183.44,99.899,193.187,87.502,193.187z M258.594,281.522
			c12.904,0,23.406,10.497,23.406,23.396c0,12.916-10.502,23.4-23.406,23.4c-12.91,0-23.389-10.484-23.389-23.4
			C235.205,292.02,245.684,281.522,258.594,281.522z M258.594,193.961c12.904,0,23.406,10.497,23.406,23.401
			c0,12.91-10.502,23.395-23.406,23.395c-12.91,0-23.389-10.484-23.389-23.395C235.205,204.458,245.684,193.961,258.594,193.961z"/>
	</g>
</g>
<g>
</g>
<g>
</g>
<g>
</g>
<g>
</g>
<g>
</g>
<g>
</g>
<g>
</g>
<g>
</g>
<g>
</g>
<g>
</g>
<g>
</g>
<g>
</g>
<g>
</g>
<g>
</g>
<g>
</g>
</svg>
